<svg width="34" height="34" viewBox="0 0 34 34" fill="none" xmlns="http://www.w3.org/2000/svg">
<rect width="34" height="34" rx="17" fill="#FF7EC2" fill-opacity="0.14"/>
<path fill-rule="evenodd" clip-rule="evenodd" d="M17 11C16.5133 11 16.0301 11.0797 15.5776 11.2355C15.1251 11.3914 14.7101 11.6212 14.3578 11.9142C14.0053 12.2073 13.7219 12.5585 13.5271 12.9495C13.4094 13.1859 13.3257 13.4334 13.278 13.6867H10.5385C10.2411 13.6867 10 13.9123 10 14.1905C10 14.4687 10.2411 14.6942 10.5385 14.6942H11.4359V17.6172C11.4359 18.7142 11.6022 19.8056 11.9299 20.8589C12.4199 22.4341 13.8306 23.6077 15.56 23.8789L15.6733 23.8967C16.5516 24.0344 17.4484 24.0344 18.3267 23.8967L18.44 23.8789C20.1694 23.6077 21.5801 22.4341 22.0701 20.859C22.3978 19.8056 22.5641 18.7142 22.5641 17.6171V14.6942H23.4615C23.7589 14.6942 24 14.4687 24 14.1905C24 13.9123 23.7589 13.6867 23.4615 13.6867H20.722C20.6743 13.4334 20.5906 13.1859 20.4729 12.9495C20.2781 12.5585 19.9947 12.2073 19.6422 11.9142C19.2899 11.6212 18.8749 11.3914 18.4224 11.2355C17.9699 11.0797 17.4867 11 17 11ZM15.9497 12.181C16.2811 12.0668 16.6382 12.0075 17 12.0075C17.3618 12.0075 17.7189 12.0668 18.0503 12.181C18.3817 12.2952 18.6791 12.4612 18.9268 12.6672C19.1743 12.8731 19.3668 13.1142 19.4968 13.3751C19.5474 13.4768 19.5883 13.581 19.6194 13.6867L14.3806 13.6867C14.4117 13.581 14.4526 13.4768 14.5032 13.3751C14.6332 13.1142 14.8257 12.8731 15.0732 12.6672C15.3209 12.4612 15.6183 12.2952 15.9497 12.181ZM15.5641 17.0451C15.8615 17.0451 16.1026 17.2706 16.1026 17.5489V20.2356C16.1026 20.5138 15.8615 20.7393 15.5641 20.7393C15.2667 20.7393 15.0256 20.5138 15.0256 20.2356V17.5489C15.0256 17.2706 15.2667 17.0451 15.5641 17.0451ZM18.4359 17.0451C18.7333 17.0451 18.9744 17.2706 18.9744 17.5489V20.2356C18.9744 20.5138 18.7333 20.7393 18.4359 20.7393C18.1385 20.7393 17.8974 20.5138 17.8974 20.2356V17.5489C17.8974 17.2706 18.1385 17.0451 18.4359 17.0451Z" fill="#EF387A"/>
</svg>
