<svg width="34" height="34" viewBox="0 0 34 34" fill="none" xmlns="http://www.w3.org/2000/svg">
<rect width="34" height="34" rx="17" fill="#8593FF" fill-opacity="0.25"/>
<path fill-rule="evenodd" clip-rule="evenodd" d="M20.0154 20.4665C20.4149 20.4073 20.9295 20.3957 21.6359 20.3937C21.1334 21.6119 20.0705 22.5319 18.7616 22.8389L18.7586 22.8396C18.7651 22.3314 18.7833 21.9395 18.833 21.6229C18.8981 21.2088 19.0094 20.98 19.1756 20.8138C19.3457 20.6437 19.5816 20.5309 20.0154 20.4665ZM18.9802 12.2291C17.6777 11.9236 16.3223 11.9236 15.0198 12.2291C13.1389 12.6703 11.6703 14.1389 11.2291 16.0198C10.9236 17.3223 10.9236 18.6777 11.2291 19.9802C11.6703 21.8611 13.1389 23.3297 15.0198 23.7709C16.1138 24.0275 17.2452 24.0685 18.3511 23.8941C18.5619 23.8608 18.7717 23.8198 18.9802 23.7709C20.8611 23.3297 22.3297 21.8611 22.7709 19.9802C23.0764 18.6777 23.0764 17.3223 22.7709 16.0198C22.3297 14.1389 20.8611 12.6703 18.9802 12.2291ZM14.7025 16.0854C14.7025 15.8739 14.8739 15.7025 15.0854 15.7025H17C17.2115 15.7025 17.3829 15.8739 17.3829 16.0854C17.3829 16.2969 17.2115 16.4683 17 16.4683H15.0854C14.8739 16.4683 14.7025 16.2969 14.7025 16.0854ZM14.7025 18C14.7025 17.7885 14.8739 17.6171 15.0854 17.6171H18.2764C18.4878 17.6171 18.6593 17.7885 18.6593 18C18.6593 18.2115 18.4878 18.3829 18.2764 18.3829H15.0854C14.8739 18.3829 14.7025 18.2115 14.7025 18Z" fill="#6879FF"/>
</svg>
