<svg width="14" height="13" viewBox="0 0 14 13" fill="none" xmlns="http://www.w3.org/2000/svg">
<path fill-rule="evenodd" clip-rule="evenodd" d="M7 0C6.51326 0 6.03009 0.0796704 5.57759 0.235538C5.12507 0.391414 4.71011 0.621158 4.35777 0.914164C4.00531 1.20727 3.72187 1.55848 3.52709 1.94953C3.40935 2.18591 3.32572 2.43345 3.27796 2.68671H0.538462C0.241077 2.68671 0 2.91225 0 3.19047C0 3.46869 0.241077 3.69423 0.538462 3.69423H1.4359V6.61716C1.4359 7.71417 1.60221 8.80562 1.92986 9.85893C2.41986 11.4341 3.83058 12.6077 5.56 12.8789L5.67325 12.8967C6.55161 13.0344 7.44836 13.0344 8.32673 12.8967L8.44 12.8789C10.1694 12.6077 11.5801 11.4341 12.0701 9.85895C12.3978 8.80563 12.5641 7.71416 12.5641 6.61714V3.69423H13.4615C13.7589 3.69423 14 3.46869 14 3.19047C14 2.91225 13.7589 2.68671 13.4615 2.68671H10.722C10.6743 2.43345 10.5906 2.18591 10.4729 1.94953C10.2781 1.55848 9.99469 1.20727 9.64223 0.914165C9.28989 0.621158 8.87493 0.391414 8.42241 0.235539C7.96991 0.0796706 7.48674 0 7 0ZM5.94968 1.18101C6.28114 1.06683 6.6382 1.00752 7 1.00752C7.3618 1.00752 7.71887 1.06683 8.05032 1.18101C8.38175 1.29517 8.6791 1.46123 8.92676 1.66719C9.17431 1.87305 9.36683 2.1142 9.49677 2.37509C9.54743 2.4768 9.58833 2.58097 9.61937 2.68671L4.38063 2.68671C4.41167 2.58097 4.45257 2.4768 4.50323 2.37509C4.63317 2.1142 4.82569 1.87305 5.07324 1.66719C5.32091 1.46123 5.61826 1.29517 5.94968 1.18101ZM5.5641 6.0451C5.86149 6.0451 6.10256 6.27064 6.10256 6.54886V9.23557C6.10256 9.51379 5.86149 9.73933 5.5641 9.73933C5.26672 9.73933 5.02564 9.51379 5.02564 9.23557V6.54886C5.02564 6.27064 5.26672 6.0451 5.5641 6.0451ZM8.4359 6.0451C8.73328 6.0451 8.97436 6.27064 8.97436 6.54886V9.23557C8.97436 9.51379 8.73328 9.73933 8.4359 9.73933C8.13851 9.73933 7.89744 9.51379 7.89744 9.23557V6.54886C7.89744 6.27064 8.13851 6.0451 8.4359 6.0451Z" fill="#EF387A"/>
</svg>
