<svg width="12" height="12" viewBox="0 0 12 12" fill="none" xmlns="http://www.w3.org/2000/svg">
<path fill-rule="evenodd" clip-rule="evenodd" d="M9.01543 8.46654C9.41488 8.40727 9.92949 8.39574 10.6359 8.39366C10.1334 9.61192 9.07047 10.5318 7.76155 10.8389L7.75856 10.8396C7.76508 10.3314 7.78329 9.9395 7.83304 9.62292C7.89811 9.20879 8.00943 8.97996 8.1756 8.81379C8.34565 8.64373 8.58157 8.53092 9.01543 8.46654ZM7.98017 0.229132C6.67773 -0.0763776 5.32227 -0.0763774 4.01983 0.229133C2.13894 0.670329 0.67033 2.13894 0.229133 4.01983C-0.0763777 5.32227 -0.0763778 6.67773 0.229133 7.98017C0.67033 9.86106 2.13895 11.3297 4.01983 11.7709C5.11379 12.0275 6.24516 12.0686 7.35109 11.8941C7.56185 11.8608 7.77169 11.8198 7.98017 11.7709C9.86106 11.3297 11.3297 9.86106 11.7709 7.98017C12.0764 6.67773 12.0764 5.32227 11.7709 4.01983C11.3297 2.13894 9.86106 0.670329 7.98017 0.229132ZM3.7025 4.08541C3.7025 3.87393 3.87393 3.7025 4.08541 3.7025H5.99998C6.21146 3.7025 6.3829 3.87393 6.3829 4.08541C6.3829 4.29689 6.21146 4.46832 5.99998 4.46832H4.08541C3.87393 4.46832 3.7025 4.29689 3.7025 4.08541ZM3.7025 5.99998C3.7025 5.7885 3.87393 5.61707 4.08541 5.61707H7.27636C7.48784 5.61707 7.65928 5.7885 7.65928 5.99998C7.65928 6.21146 7.48784 6.3829 7.27636 6.3829H4.08541C3.87393 6.3829 3.7025 6.21146 3.7025 5.99998Z" fill="#6879FF"/>
</svg>
